<mxfile host="app.diagrams.net" modified="2024-05-26T01:38:56.227Z" agent="Mozilla/5.0 (X11; Linux x86_64) AppleWebKit/537.36 (KHTML, like Gecko) Chrome/119.0.0.0 Safari/537.36" version="24.4.8" etag="U7cIajI6xa9AlOgJqrIH" type="github">
  <diagram name="第 1 页" id="P5-lSONUULu1LoxW8iHf">
    <mxGraphModel>
      <root>
        <mxCell id="0" />
        <mxCell id="1" parent="0" />
      </root>
    </mxGraphModel>
  </diagram>
</mxfile>
